# xmcd
#
# Track frame offsets: 
#        150
#        10965
#        25360
#        37305
#        49450
#        61685
#        74437
#        87580
#        101637
#        113745
#        125547
#        135645
#        146320
#        154810
#        166845
#        177372
#        185367
#        196317
#        228077
#        240125
#
# Disc length: 3338 seconds
#
# Revision: 5
# Processed by: cddbd v1.5.2PL0 Copyright (c) Steve Scherf et al.
# Submitted via: ExactAudioCopyFreeDBPlugin 1.0
#
DISCID=100d0814
DTITLE=Chuck Berry - The Best of Chuck Berry Disc 1
DYEAR=1996
DGENRE=Rock and Roll
TTITLE0=Roll Over Beethoven
TTITLE1=Sweet Little Sixteen
TTITLE2=Johnny B. Goode
TTITLE3=You Never Can Tell
TTITLE4=You Can't Catch Me
TTITLE5=Downbound Train
TTITLE6=Too Much Monkey Business
TTITLE7=Havana Moon
TTITLE8=School Day
TTITLE9=Oh Baby Doll
TTITLE10=Beautiful Delilah
TTITLE11=Sweet Little Rock 'N'  Roller
TTITLE12=Anthony Boy
TTITLE13=Little Queenie
TTITLE14=Almost Grown
TTITLE15=Let It Rock
TTITLE16=Back In The USA
TTITLE17=Reelin' And Rockin' [Live]
TTITLE18=Around And Around
TTITLE19=Brown Eyed Handsome Man
EXTD=
EXTT0=Roll Over Beethoven
EXTT1=Sweet Little Sixteen
EXTT2=Johnny B. Goode
EXTT3=You Never Can Tell
EXTT4=You Can't Catch Me
EXTT5=Downbound Train
EXTT6=Too Much Monkey Business
EXTT7=Havana Moon
EXTT8=School Day
EXTT9=Oh Baby Doll
EXTT10=Beautiful Delilah
EXTT11=Sweet Little Rock N'  Roller
EXTT12=Anthony Boy
EXTT13=Little Queenie
EXTT14=Almost Grown
EXTT15=Let It Rock
EXTT16=Back in the U.S.A.
EXTT17=Reelin' and Rockin' (Live)
EXTT18=Around and Around
EXTT19=Brown Eyed Handsome Man
PLAYORDER=
